<svg id="Capa_1" data-name="Capa 1" xmlns="http://www.w3.org/2000/svg" viewBox="0 0 807.6 807.6"><defs><style>.cls-1{fill:#4792d1;}.cls-2{fill:#1b1a38;}</style></defs><title>icn_calendario</title><circle class="cls-1" cx="403.8" cy="403.8" r="403.8"/><path class="cls-2" d="M80.27,555.12V546.4c2-2.74,3.54-6,6-8.15,17-15.09,30.48-33.05,41.77-52.63,33.45-58,48.64-121.09,50-187.62.73-34.82.16-69.67.2-104.51,0-12,6.53-18.41,18.57-18.42q37.27,0,74.57,0h5.95c0-5.7-.06-10.59,0-15.48.15-10,7.2-17.29,16.53-17.17,9.12.12,15.94,7.3,16.11,17.05.08,5,0,10.07,0,15.27h81.68c0-5,0-9.69,0-14.38.07-10.56,6.79-17.93,16.31-17.94s16.25,7.36,16.34,17.92c0,4.82,0,9.63,0,14.29h82.76c0-5.34-.06-10.24,0-15.13.15-9.76,7-16.94,16.08-17.08,9.32-.14,16.39,7.14,16.55,17.15.08,5,0,10,0,15.5H617.6c14.29,0,20.22,5.87,20.23,20v417c0,14.55-5.84,20.35-20.47,20.35H198.75c-1.45,0-2.9.05-4.35,0a16.45,16.45,0,0,1-16.09-16c-.1-2.18,0-4.36,0-6.53V567.09H171.9c-23.41,0-46.82-.31-70.22.15C91.69,567.44,84.5,564.31,80.27,555.12ZM605.08,306.05H210.77c-3.85,83.31-25.46,160.47-76.71,228.37H498.94c19.5,0,19.68.15,32.06-15.23C581,457.18,600.63,384.61,605.08,306.05Zm-65.26-98.19c0,5.36,0,10.22,0,15.08-.13,10.13-6.95,17.41-16.27,17.44s-16.25-7.25-16.38-17.33c-.06-5,0-10,0-14.88H424.39c0,5.32.06,10.21,0,15.1-.17,10-7.28,17.28-16.6,17.11-9.11-.16-15.88-7.35-16-17.12-.08-5,0-10,0-15.17H310.05c0,5,0,9.74,0,14.43-.09,10.53-6.88,17.9-16.4,17.86s-16.18-7.41-16.26-18c0-4.81,0-9.62,0-14.36H211.3v64.67H604.71V207.86Zm65.1,251.38c-1.44,3-2.28,4.71-3.08,6.43-16.21,34.75-36.05,67-63.74,94-5.39,5.26-11.39,7.52-19,7.51q-150.8-.24-301.58-.11h-6.3v32.37H604.92Z" transform="translate(-1.25 0.37)"/></svg>