<svg id="Capa_1" data-name="Capa 1" xmlns="http://www.w3.org/2000/svg" viewBox="0 0 807.6 807.6"><defs><style>.cls-1{fill:#4792d1;}.cls-2{fill:#1b1a38;}</style></defs><title>icn_nariz</title><circle class="cls-1" cx="403.8" cy="403.8" r="403.8"/><path class="cls-2" d="M288.18,751.93c-12.1-8.45-13.14-21-10-33.3,2.76-10.78,7.86-21.16,13.22-31,7.66-14.1,16.89-27.34,24.65-41.4,3.88-7,6.34-15,8.82-22.66,3.86-12-.47-22-10.81-28a205.32,205.32,0,0,0-35.42-16.66c-23.6-8.23-48.14-13.15-73.17-13.34-22.44-.17-39-10.06-51.91-27.33-16.06-21.43-23.67-46.2-27.15-72.29-2.42-18.11-6.76-36.89.29-54.43A276.3,276.3,0,0,1,152,362.93c29.88-45.37,66.42-85.41,103.57-124.83,58.14-61.7,119.25-120.37,182-177.34a84.4,84.4,0,0,1,7-5.22h8.16c11.84,8.85,12,16.48.68,26.8C378.76,150.18,306.23,220.23,239.3,295.8c-23.68,26.74-44.87,55.69-67.39,83.48-22.07,27.24-25.38,58-17.95,91,3.84,17.1,8.54,33.77,18.39,48.56,8.23,12.34,18.43,19.46,34.51,20.1,32.69,1.31,64.78,7.42,95.22,20a140.05,140.05,0,0,1,26.75,14.52c21.83,15.3,29.26,34.62,20.73,59.8-5.6,16.52-14.73,31.89-22.88,47.47-6.07,11.61-13.31,22.61-19.61,34.1-3.45,6.29-4.6,12.89-1.81,20.22,2.53,6.64-.7,11.73-8.92,16.85Z" transform="translate(-3.97 0.07)"/><path class="cls-2" d="M297.32,755.33H287.11l-.87-.61c-11.72-8.18-15.53-20.61-11.34-36.94,3-11.52,8.5-22.53,13.53-31.79,4-7.36,8.46-14.56,12.78-21.52,4-6.48,8.17-13.17,11.88-19.9,3.56-6.44,5.93-13.86,8.23-21l.33-1c3.25-10.13,0-18.67-9.29-24a201.52,201.52,0,0,0-34.82-16.39c-24.53-8.55-48.77-13-72.08-13.15-22.41-.17-40.27-9.56-54.61-28.69-14.69-19.61-23.78-43.78-27.79-73.88-.34-2.52-.71-5.05-1.09-7.59-2.36-16-4.81-32.62,1.6-48.56a278.05,278.05,0,0,1,25.6-49.14c30.27-46,67.94-87.1,103.93-125.3,53.13-56.38,112.73-114.44,182.2-177.52a49.94,49.94,0,0,1,5.08-3.88c.74-.51,1.48-1,2.2-1.56l.9-.66h10.41l.91.67c6.84,5.12,10.14,9.95,10.39,15.21s-2.75,10.74-9.46,16.84c-87.48,79.46-155.44,147.2-213.88,213.19-15.42,17.41-30,36.1-44.19,54.18-7.52,9.61-15.29,19.54-23.11,29.19-19.53,24.1-25.18,52.93-17.28,88.13,4.18,18.61,8.83,33.8,17.91,47.42,8.32,12.48,17.84,18,31.82,18.6,34.8,1.39,67.23,8.2,96.38,20.25a142.37,142.37,0,0,1,27.4,14.89c23.7,16.61,30.89,37.44,22,63.67-4.52,13.34-11.33,26-17.92,38.25-1.73,3.23-3.47,6.47-5.17,9.7-3.41,6.53-7.22,12.93-10.91,19.11-2.92,4.91-5.95,10-8.73,15.06-3.31,6-3.83,11.56-1.61,17.36,4,10.52-4,17-10.3,20.95Zm-8-6.8h6.07c8.41-5.48,7.9-9.19,6.73-12.24-2.93-7.71-2.28-15.25,2-23.06,2.84-5.18,5.89-10.31,8.85-15.27,3.64-6.11,7.41-12.42,10.73-18.78,1.7-3.26,3.45-6.51,5.2-9.77,6.46-12,13.13-24.41,17.47-37.21,7.9-23.31,1.71-41.08-19.46-55.92a135.54,135.54,0,0,0-26.1-14.17c-28.41-11.75-60-18.39-94-19.75-16.19-.65-27.67-7.31-37.2-21.62-9.67-14.49-14.55-30.35-18.89-49.7-8.4-37.36-2.3-68.08,18.63-93.9,7.78-9.6,15.53-19.52,23-29.1,14.21-18.16,28.9-36.94,44.46-54.5,58.61-66.18,126.73-134.09,214.39-213.71,5-4.57,7.4-8.32,7.25-11.49-.14-2.84-2.36-5.93-6.79-9.4H445.7c-.47.34-.95.67-1.43,1a44,44,0,0,0-4.4,3.34c-69.34,63-128.82,120.9-181.82,177.15-35.78,38-73.23,78.86-103.2,124.37a271.54,271.54,0,0,0-25,47.94c-5.72,14.23-3.41,29.88-1.18,45,.38,2.58.76,5.14,1.1,7.69,3.86,28.92,12.52,52.05,26.5,70.7,13,17.32,29.07,25.81,49.21,26,24.05.18,49,4.73,74.26,13.52a209,209,0,0,1,36,16.94c12.1,7,16.6,18.71,12.33,32l-.32,1c-2.4,7.49-4.88,15.24-8.75,22.26s-8,13.65-12.06,20.19c-4.27,6.88-8.68,14-12.59,21.19-4.83,8.89-10.14,19.43-12.91,30.23C278.14,732.54,280.68,742.06,289.28,748.53Z" transform="translate(-3.97 0.07)"/><path class="cls-2" d="M520.11,546.31c-.71-23.81-5.8-46.74-12.28-69.44-.68-2.39-1.52-4.75-2-7.19-1.57-8,2.15-14.45,9.37-16.47,6.9-1.93,14,2,16.2,9.74,3.84,13.94,7.66,27.94,10.49,42.11,4.72,23.68,6.67,47.6,1.68,71.52-8.45,40.54-37.91,65.6-80.63,67.59-13.22.61-26.63-1.06-39.85-2.58-9.54-1.1-14.11-7.63-12.7-15.88,1.35-7.92,8-11.75,17.6-10,15.51,2.76,31,3.63,46.55.16,24.18-5.4,39.25-21.67,43.36-47.25C519.09,561.23,519.4,553.74,520.11,546.31Z" transform="translate(-3.97 0.07)"/><path class="cls-2" d="M457.18,647.7c-10.81,0-21.68-1.26-32.24-2.48L422.7,645c-5.61-.65-10.07-3-12.88-6.72A16.6,16.6,0,0,1,407,625.14a15.29,15.29,0,0,1,6.2-10.26c3.93-2.76,9.24-3.65,15.35-2.56,17.48,3.12,31.85,3.17,45.21.19,22.8-5.1,36.89-20.47,40.75-44.47.79-4.9,1.19-10,1.57-15,.18-2.29.36-4.58.58-6.87-.79-25.69-6.9-50-12.14-68.4q-.3-1.05-.63-2.1a52.41,52.41,0,0,1-1.43-5.36c-1.9-9.7,2.83-17.89,11.78-20.4a16.09,16.09,0,0,1,12.33,1.45A17.36,17.36,0,0,1,534.68,462c4.29,15.61,7.8,28.64,10.54,42.36,5.63,28.21,6.17,51.36,1.68,72.87-4.31,20.7-14.21,38.05-28.6,50.16s-33.54,19.13-55.2,20.13Q460.15,647.69,457.18,647.7Zm-33.5-29a11.16,11.16,0,0,0-6.52,1.77,8.53,8.53,0,0,0-3.42,5.85,10,10,0,0,0,1.52,7.88c1.66,2.22,4.5,3.61,8.22,4l2.24.26c12.22,1.41,24.86,2.87,37.07,2.3,41-1.91,69.25-25.56,77.45-64.88,4.3-20.59,3.76-42.88-1.69-70.16-2.69-13.5-6.17-26.41-10.43-41.88a10.56,10.56,0,0,0-4.86-6.54,9.27,9.27,0,0,0-7.14-.82c-5.5,1.54-8.16,6.34-6.95,12.54a47,47,0,0,0,1.27,4.68c.22.74.45,1.48.66,2.23,5.37,18.78,11.62,43.75,12.4,70.27v.22l0,.21c-.22,2.31-.4,4.64-.59,7-.39,5.09-.81,10.35-1.64,15.52-4.34,27-20.24,44.27-46,50-14.28,3.18-29.5,3.14-47.9-.13A20.6,20.6,0,0,0,423.68,618.67Z" transform="translate(-3.97 0.07)"/><path class="cls-2" d="M392.69,521.42c-14.05-13.26-27.55-27-45.16-35.53-7.7-3.73-9.95-2.61-10,5.92a193.57,193.57,0,0,0,1.89,26.32c1.1,8.64-2.72,15.49-10.45,17.12-7.16,1.52-13.95-3.16-15.65-11.55-2.88-14.27-4.59-28.65-.73-43.06,5.19-19.45,20.77-28.66,39.47-21.16a122.12,122.12,0,0,1,33.52,20c17,14.54,32.4,30.93,48.39,46.63,4.48,4.41,5.65,9.87,3.06,15.6-2.5,5.49-7.22,7.7-13.25,7.67-17.89-.09-35.79,0-53.69-.07-8.6-.05-14.32-5.3-14.51-12.88s5.28-13.11,13.87-13.53c7.42-.36,14.86-.43,22.29-.64C391.88,522.27,392,522,392.69,521.42Z" transform="translate(-3.97 0.07)"/><path class="cls-2" d="M423.87,552.8h-.14q-12.89-.06-25.76,0c-9.16,0-18.62,0-27.94,0-10.29-.06-17.65-6.72-17.89-16.2s6.8-16.5,17.1-17c4.94-.24,9.94-.35,14.77-.46l1.23,0c-12.38-11.77-24.18-22.81-39.19-30.09-2.89-1.4-4.14-1.66-4.63-1.69a13.6,13.6,0,0,0-.53,4.59,192.81,192.81,0,0,0,1.87,25.86c1.35,10.7-3.8,18.9-13.13,20.87a15.71,15.71,0,0,1-12-2.22,18.43,18.43,0,0,1-7.71-12c-2.69-13.29-4.87-29-.69-44.62,2.91-10.9,9.06-19.17,17.3-23.3,7.88-3.94,17.12-4,26.73-.14a125.23,125.23,0,0,1,34.46,20.6c12.5,10.7,24.3,22.54,35.71,34,4.2,4.21,8.54,8.57,12.85,12.8,5.53,5.43,6.91,12.51,3.77,19.42C438.08,547.55,433.64,552.8,423.87,552.8ZM408.22,546c5.18,0,10.36,0,15.54,0h.11c5.08,0,8.26-1.81,10-5.68,2-4.34,1.18-8.3-2.35-11.76-4.33-4.25-8.68-8.62-12.9-12.85-11.31-11.36-23-23.1-35.31-33.63a118.33,118.33,0,0,0-32.57-19.44c-7.75-3.11-15.07-3.15-21.15-.1-6.48,3.25-11.38,10-13.78,19-3.81,14.24-1.87,28.36.79,41.51a11.67,11.67,0,0,0,4.78,7.65,8.88,8.88,0,0,0,6.83,1.25c5.77-1.23,8.68-6.22,7.78-13.37a197.75,197.75,0,0,1-1.92-26.79c0-4.22.53-8.4,3.7-10.37s7.29-.48,11.23,1.43c16.37,7.94,29.36,20.3,41.93,32.25L395,519l2.69,2.54L395,524c-.19.17-.32.31-.42.41a3.89,3.89,0,0,1-2.73,1.32q-3.81.11-7.64.18c-4.79.11-9.74.22-14.59.46-6.7.32-10.78,4.17-10.63,10s4.51,9.53,11.13,9.57c9.29.06,18.75.05,27.89,0ZM391.6,518.88h0Z" transform="translate(-3.97 0.07)"/></svg>