<svg id="Capa_1" data-name="Capa 1" xmlns="http://www.w3.org/2000/svg" viewBox="0 0 807.6 807.6"><defs><style>.cls-1{fill:#4792d1;}.cls-2{fill:#1b1a38;}</style></defs><title>icn_resultado</title><circle class="cls-1" cx="403.8" cy="403.8" r="403.8"/><path class="cls-2" d="M756.89,408.9q-32.25,53.84-64.5,107.68c-10.89,18.14-27.73,18.1-38.64-.07-19.86-33.08-39.64-66.22-59.61-99.24-4.66-7.7-6.74-15.38-2-23.63,4.62-8,12.09-10,20.86-10,39.29.16,78.58.38,117.86-.12,12.16-.15,20.89,3.59,26,14.77Z" transform="translate(-0.64 0.17)"/><path class="cls-2" d="M687.06,343.93c-12.94,0-24.85-.18-36.75.1-4.76.11-4.51-3.2-5.24-6-11.31-43.81-32-82.62-62.93-115.67-47.72-51-106.4-80.21-176.23-85.36-130-9.57-246,73.49-279.44,199.41C91,469.85,166.7,611.28,297.59,656.3a279,279,0,0,0,87,15c15.51.24,25.2,14.47,19,27.82-3.95,8.55-11.11,12.05-20.38,11.92-44.08-.64-86.57-9.14-126.22-28.48C158.09,634.34,98.31,555.76,81.47,446.88,60.69,312.53,134.8,179.47,259.25,123.52c176.12-79.18,380,20.83,425.25,208.61C685.37,335.75,686.08,339.41,687.06,343.93Z" transform="translate(-0.64 0.17)"/><path class="cls-2" d="M405.52,383.71c17.82,0,34.58,0,51.34,0,13.4,0,22.59,8,22.74,19.67.15,11.85-9.22,20.06-23,20.08q-34.11,0-68.21,0c-14.71,0-22.61-7.79-22.63-22.32q-.06-45.69,0-91.38c0-13,8-21.71,19.75-21.74s19.93,8.69,20,21.61c.08,22.07,0,44.15,0,66.22Z" transform="translate(-0.64 0.17)"/><path class="cls-2" d="M188.54,423.47c-5.29,0-10.58.13-15.87,0-11.21-.34-19.91-9-20-19.68a20.08,20.08,0,0,1,19.7-20q16.2-.37,32.41,0a19.52,19.52,0,0,1,19.5,20c-.08,11-8.42,19.34-19.83,19.69C199.13,423.6,193.84,423.47,188.54,423.47Z" transform="translate(-0.64 0.17)"/><path class="cls-2" d="M365.77,206.37c0-5.29-.13-10.59,0-15.87A20.05,20.05,0,0,1,385,170.68c10-.42,19.66,7.46,20.27,17.91a317.11,317.11,0,0,1,0,35.69c-.59,10.9-9.95,18.46-20.71,18A19.62,19.62,0,0,1,365.8,222.9C365.62,217.39,365.77,211.88,365.77,206.37Z" transform="translate(-0.64 0.17)"/><path class="cls-2" d="M365.77,600.44c0-5.29-.13-10.58,0-15.87.32-11.06,8.46-19.35,19.13-19.65s19.87,7.4,20.39,18.34a347.06,347.06,0,0,1,0,35c-.55,10.47-9.95,18.44-20,18.21A20.05,20.05,0,0,1,365.8,617C365.61,611.47,365.77,606,365.77,600.44Z" transform="translate(-0.64 0.17)"/><path class="cls-2" d="M266.92,263.26c-.28,9.85-3.7,16.17-11.26,19.68s-14.84,2.74-21.08-2.57a132,132,0,0,1-14.94-15,19.55,19.55,0,0,1,.47-25.51c6.06-6.93,17.2-9.44,24.58-3.83s13.44,12.6,19.53,19.49C266.2,257.8,266.39,261.62,266.92,263.26Z" transform="translate(-0.64 0.17)"/><path class="cls-2" d="M266.79,543c-.52,11.81-19.76,30.94-31.46,30.93-8.14,0-14.51-3.57-18.09-11.12-3.66-7.73-2.68-15.18,2.85-21.58a138.57,138.57,0,0,1,14-14c6.41-5.57,13.88-6.42,21.62-2.92C263,527.57,267.16,534.77,266.79,543Z" transform="translate(-0.64 0.17)"/><path class="cls-2" d="M555.89,253.1c-.06,12.36-19.73,32-32,31.79-7.88-.17-14-3.68-17.54-10.93-3.61-7.45-3-14.82,2.25-21.09A121.26,121.26,0,0,1,524,237.48c6.31-5.23,13.77-5.69,21.13-2C552.33,239,555.66,245.18,555.89,253.1Z" transform="translate(-0.64 0.17)"/><path class="cls-2" d="M556,551.86c-.48,10.49-3.9,16.61-11.17,20-7.69,3.61-15.2,2.74-21.62-2.8a141.74,141.74,0,0,1-14-14,19.75,19.75,0,0,1,27.77-28,103,103,0,0,1,13.94,14.07C553.71,544.79,555,549.63,556,551.86Z" transform="translate(-0.64 0.17)"/></svg>