<?xml version="1.0" encoding="utf-8"?>
<!-- Generator: Adobe Illustrator 24.0.2, SVG Export Plug-In . SVG Version: 6.00 Build 0)  -->
<svg version="1.1" id="Capa_1" xmlns="http://www.w3.org/2000/svg" xmlns:xlink="http://www.w3.org/1999/xlink" x="0px" y="0px"
	 viewBox="0 0 481.6 315.7" style="enable-background:new 0 0 481.6 315.7;" xml:space="preserve">
<style type="text/css">
	.st0{fill:#FCD700;}
	.st1{fill:#2840C8;}
</style>
<g>
	<g>
		<path d="M44.2,283.8c0-17.6,14.3-31.9,31.8-31.9c12.2,0,23.6,7.3,28.3,17.3H93c-3.5-4.7-10.3-7.8-16.9-7.8
			c-12.2,0-22.3,10-22.3,22.3c0,12.2,10,22.3,22.3,22.3c6.6,0,13-2.7,16.9-7.8h11.4c-5,10.4-16,17.3-28.3,17.3
			C58.5,315.6,44.2,301.4,44.2,283.8z"/>
		<path d="M156.3,291.6c0,13.3-10.8,24.2-24.1,24.2s-24.1-10.9-24.1-24.2c0-13.3,10.8-24.1,24.1-24.1S156.3,278.2,156.3,291.6z
			 M132.2,307.2c8.6,0,15.6-7.1,15.6-15.7c0-8.5-7-15.5-15.6-15.5c-8.6,0-15.6,7-15.6,15.5C116.6,300.1,123.6,307.2,132.2,307.2z"/>
		<path d="M193.5,292.5c0-3.7,0.6-11.9-5.3-15.4c-2.9-1.7-7.8-1.7-10.9,0.2c-6.2,3.7-5.7,11.7-5.7,15.9v21.1h-9.1V269h9.1v3.4
			c5.7-5.6,14.7-6.1,20.7-3.3c9.5,4.5,10.4,13.1,10.4,20.9v24.2h-9.1V292.5z"/>
		<path d="M227.9,280.7c-0.2-1.5-0.8-4.4-4-5.3c-1.5-0.5-3.4-0.3-4.6,0.8c-1.5,1.2-2.2,2.8-2,4.7c0.2,1.7,1.3,3.3,3.5,4.5
			c4.3,2.4,11,2.6,14.8,9.4c2.1,3.9,2,9.3-0.5,13.5c-2.9,5.1-7.4,7.3-11.9,7.4c-3.7,0.2-9.6-0.8-12.9-5.2c-2.6-3.4-3.4-7.1-3.4-10.9
			h8.3c0.3,3,0.8,5.9,4.4,7.4c1.7,0.8,4.4,0.7,6.1-0.5c1.7-1.1,2.6-3,2.6-5c0.1-2-0.7-3.7-2.9-5.2c-3.6-2.6-11.3-2.5-15-8.7
			c-2.1-3.5-2.1-8.6-0.4-12.3c2.3-4.8,6-7.1,10.4-7.8c4-0.6,8.8,0.3,12.2,4.2c3,3.2,3.2,6.8,3.2,8.9H227.9z"/>
		<path d="M252,290.7c0,3.7-0.6,11.9,5.4,15.4c2.9,1.7,7.8,1.7,10.9-0.2c6.2-3.6,5.7-11.6,5.7-15.8V269h9.1v45.2H274v-3.4
			c-5.7,5.6-14.7,6.1-20.6,3.3c-9.5-4.6-10.5-13.1-10.5-20.9V269h9.1V290.7z"/>
		<path d="M291.6,314.2v-61h9.1v61H291.6z"/>
		<path d="M320.5,314.2h-9.1v-37.5h-6.9V269h6.9v-15.7h9.1V269h6.8v7.8h-6.8V314.2z"/>
		<path d="M374.6,291.6c0,13.3-10.8,24.2-24.1,24.2c-13.3,0-24.1-10.9-24.1-24.2c0-13.3,10.8-24.1,24.1-24.1
			C363.8,267.5,374.6,278.2,374.6,291.6z M350.5,307.2c8.6,0,15.6-7.1,15.6-15.7c0-8.5-7-15.5-15.6-15.5s-15.6,7-15.6,15.5
			C335,300.1,342,307.2,350.5,307.2z"/>
		<path d="M380.8,314.2V269h9.1v3c2.9-3.4,7.1-4.6,11.6-4.6v8.8c-2.5,0-6.3,0.6-8.7,3.2c-2.9,3-2.8,9.2-2.8,12.2v22.5H380.8z"/>
		<path d="M438.4,299.8h9.5c-3.4,9-12.5,15.9-22.7,15.9c-13.3,0-24.1-10.9-24.1-24.2c0-13.3,10.8-24.1,24.1-24.1
			c13.3,0,24.1,10.8,24.1,24.1c0,0.9,0,1.4-0.1,2.2h-39.4c1,7.3,7.7,13.5,15.4,13.5C430.6,307.2,435.6,304.2,438.4,299.8z
			 M439.6,285.9c-2.4-5.6-8-9.9-14.4-9.9c-6.4,0-12.1,4.3-14.5,9.9H439.6z"/>
		<path d="M471.8,280.7c-0.2-1.5-0.8-4.4-4-5.3c-1.5-0.5-3.4-0.3-4.6,0.8c-1.5,1.2-2.2,2.8-2,4.7c0.2,1.7,1.3,3.3,3.5,4.5
			c4.3,2.4,11,2.6,14.8,9.4c2.1,3.9,2,9.3-0.5,13.5c-2.9,5.1-7.4,7.3-11.9,7.4c-3.7,0.2-9.6-0.8-12.9-5.2c-2.6-3.4-3.4-7.1-3.4-10.9
			h8.3c0.3,3,0.8,5.9,4.4,7.4c1.7,0.8,4.4,0.7,6.1-0.5c1.7-1.1,2.6-3,2.6-5c0.1-2-0.7-3.7-2.9-5.2c-3.6-2.6-11.3-2.5-15-8.7
			c-2.1-3.5-2.1-8.6-0.4-12.3c2.3-4.8,6-7.1,10.4-7.8c4-0.6,8.8,0.3,12.2,4.2c3,3.2,3.2,6.8,3.2,8.9H471.8z"/>
	</g>
	<g>
		<path d="M273.2,61.7l79.5,115.4V61.7h24.5v162.2h-22.5l-83.9-120v120h-24.5V61.7H273.2z"/>
		<path d="M481.6,61.7v20.7h-55.8v49.9h55.8v20.9h-55.8v50.1h55.8v20.7h-80.3V61.7H481.6z"/>
	</g>
	<path class="st0" d="M229.1,114.7c0,60.6-47.7,110.4-107.4,114.2l18.3-38.3c31.8-10.7,54.7-40.7,54.7-75.8
		c0-44.2-36-80.3-80.3-80.3c-44,0-80,36-80,80.3c0,9.5,1.7,18.6,4.8,27.1l-18.4,38.6C7.7,161.8,0,139.1,0,114.7
		C0,51.6,51.3,0,114.4,0C177.5,0,229.1,51.6,229.1,114.7z"/>
	<g>
		
			<rect x="46.8" y="120.9" transform="matrix(0.9029 0.4299 -0.4299 0.9029 82.0477 -6.4343)" class="st1" width="16.9" height="114.9"/>
		
			<rect x="90.1" y="94.6" transform="matrix(0.9029 0.4299 -0.4299 0.9029 74.9317 -27.6031)" class="st1" width="16.9" height="114.9"/>
		
			<rect x="130" y="77.3" transform="matrix(0.9029 0.4299 -0.4299 0.9029 71.36 -46.4269)" class="st1" width="16.9" height="114.9"/>
	</g>
</g>
</svg>
